<?xml version="1.0" encoding="utf-8"?>
<!-- Generator: Adobe Illustrator 16.0.0, SVG Export Plug-In . SVG Version: 6.00 Build 0)  -->
<!DOCTYPE svg PUBLIC "-//W3C//DTD SVG 1.1//EN" "http://www.w3.org/Graphics/SVG/1.1/DTD/svg11.dtd">
<svg version="1.1" id="Layer_1" xmlns="http://www.w3.org/2000/svg" xmlns:xlink="http://www.w3.org/1999/xlink" x="0px" y="0px"
	 width="31px" height="25px" viewBox="0 0 31 25" enable-background="new 0 0 31 25" xml:space="preserve">
<path fill="#737373" d="M30.762,2.959C29.63,3.461,28.414,3.8,27.138,3.953c1.303-0.781,2.303-2.018,2.774-3.492
	c-1.22,0.724-2.57,1.249-4.007,1.532C24.753,0.766,23.113,0,21.298,0c-3.485,0-6.312,2.825-6.312,6.311
	c0,0.495,0.056,0.977,0.164,1.438C9.905,7.486,5.255,4.974,2.142,1.156C1.598,2.087,1.288,3.171,1.288,4.328
	c0,2.19,1.114,4.122,2.808,5.253C3.06,9.548,2.087,9.265,1.236,8.792C1.235,8.818,1.235,8.845,1.235,8.871
	c0,3.058,2.176,5.609,5.063,6.188c-0.53,0.145-1.087,0.221-1.663,0.221c-0.407,0-0.802-0.039-1.188-0.112
	c0.803,2.507,3.134,4.331,5.896,4.383c-2.16,1.693-4.881,2.702-7.838,2.702c-0.509,0-1.012-0.03-1.506-0.089
	C2.792,23.955,6.11,25,9.675,25c11.609,0,17.957-9.617,17.957-17.958c0-0.273-0.007-0.545-0.019-0.816
	C28.846,5.337,29.917,4.225,30.762,2.959z"/>
</svg>
